<svg id="Camada_1" data-name="Camada 1" xmlns="http://www.w3.org/2000/svg" viewBox="0 0 609.17 212.47"><defs><style>.cls-1{fill:#e6e6e6;}</style></defs><title>Logotipo white</title><path class="cls-1" d="M52.08,62.23h15v73h-15Z"/><path class="cls-1" d="M125.39,85.23v50h-15v-4.7c-2.7,3.7-7.7,6.09-14.3,6.09-10.11,0-18.71-7.2-18.71-20.7V85.23h15v28.5c0,6.2,3.9,9.1,8.7,9.1,5.5,0,9.3-3.2,9.3-10.3V85.23Z"/><path class="cls-1" d="M136.38,85.23h15v50h-15Z"/><path class="cls-1" d="M200.89,121.23v14h-40v-10l18.9-26h-17.9v-14h38v10l-18.91,26Z"/><path class="cls-1" d="M273.68,120.23c0,11.51-10,16.4-20.8,16.4-10,0-17.6-3.8-21.5-11.9l13-7.4c1.3,3.8,4.1,5.9,8.5,5.9,3.6,0,5.4-1.1,5.4-3.1,0-5.5-24.6-2.6-24.6-19.9,0-10.9,9.2-16.4,19.6-16.4,8.1,0,15.3,3.6,19.5,10.7l-12.8,6.9c-1.4-2.6-3.4-4.4-6.7-4.4-2.6,0-4.2,1-4.2,2.8C249.08,105.53,273.68,101.73,273.68,120.23Z"/><path class="cls-1" d="M278.18,110.23a26.51,26.51,0,1,1,26.5,26.4A26.21,26.21,0,0,1,278.18,110.23Zm38,0c0-7.1-5-11.8-11.5-11.8s-11.5,4.7-11.5,11.8,5,11.8,11.5,11.8S316.18,117.33,316.18,110.23Z"/><path class="cls-1" d="M391,85.23v50H376v-4.7c-3.3,3.79-8.2,6.09-14.9,6.09-13.1,0-23.9-11.5-23.9-26.4s10.8-26.4,23.9-26.4c6.7,0,11.6,2.3,14.9,6.1v-4.7Zm-15,25c0-7.5-5-12.2-11.9-12.2s-11.9,4.7-11.9,12.2,5,12.2,11.9,12.2S376,117.73,376,110.23Z"/><path class="cls-1" d="M432,84.23v17c-6.2-1-15,1.5-15,11.4v22.61H402v-50h15v8.9C419,87.43,425.68,84.23,432,84.23Z"/><path class="cls-1" d="M462.88,123.23a13.06,13.06,0,0,0,9.6-3.8l12,6.9c-4.9,6.8-12.3,10.3-21.8,10.3-17.1,0-27.7-11.5-27.7-26.4s10.8-26.4,26.6-26.4c14.6,0,25.4,11.3,25.4,26.4a29.07,29.07,0,0,1-.6,6h-35.5C452.78,121.43,457.38,123.23,462.88,123.23Zm9.2-18.2c-1.6-5.8-6.1-7.9-10.6-7.9-5.7,0-9.5,2.8-10.9,7.9Z"/><path class="cls-1" d="M532.28,120.23c0,11.51-10,16.4-20.8,16.4-10,0-17.6-3.8-21.5-11.9l13-7.4c1.3,3.8,4.1,5.9,8.5,5.9,3.6,0,5.4-1.1,5.4-3.1,0-5.5-24.6-2.6-24.6-19.9,0-10.9,9.2-16.4,19.6-16.4,8.1,0,15.3,3.6,19.5,10.7l-12.8,6.9c-1.4-2.6-3.4-4.4-6.7-4.4-2.6,0-4.2,1-4.2,2.8C507.68,105.53,532.28,101.73,532.28,120.23Z"/><path class="cls-1" d="M565.17,93.82V62.58a.36.36,0,0,0-.36-.36H533.57a.36.36,0,0,0-.26.61l31.25,31.25A.36.36,0,0,0,565.17,93.82Z"/></svg>